<svg width="70" height="70" viewBox="0 0 70 70" fill="none" xmlns="http://www.w3.org/2000/svg">
<path d="M55.4166 32.0833H20.825L31.4125 19.3666C31.9075 18.771 32.1457 18.0031 32.0746 17.2319C32.0035 16.4606 31.6289 15.7492 31.0333 15.2541C30.4377 14.7591 29.6698 14.5209 28.8985 14.592C28.1273 14.6631 27.4159 15.0377 26.9208 15.6333L12.3375 33.1333C12.2393 33.2725 12.1516 33.4187 12.075 33.5708C12.075 33.7166 12.075 33.8041 11.8708 33.95C11.7386 34.2844 11.6694 34.6404 11.6666 35C11.6694 35.3596 11.7386 35.7155 11.8708 36.05C11.8708 36.1958 11.8708 36.2833 12.075 36.4291C12.1516 36.5812 12.2393 36.7274 12.3375 36.8666L26.9208 54.3666C27.195 54.6959 27.5384 54.9606 27.9266 55.1421C28.3148 55.3236 28.7381 55.4173 29.1666 55.4166C29.8481 55.418 30.5085 55.1806 31.0333 54.7458C31.3286 54.5009 31.5728 54.2002 31.7517 53.8609C31.9306 53.5215 32.0409 53.1502 32.0761 52.7682C32.1113 52.3862 32.0708 52.001 31.957 51.6346C31.8431 51.2683 31.658 50.928 31.4125 50.6333L20.825 37.9166H55.4166C56.1902 37.9166 56.932 37.6093 57.479 37.0624C58.026 36.5154 58.3333 35.7735 58.3333 35C58.3333 34.2264 58.026 33.4846 57.479 32.9376C56.932 32.3906 56.1902 32.0833 55.4166 32.0833Z" fill="#5E5D5D"/>
</svg>
