<svg width="70" height="70" viewBox="0 0 70 70" fill="none" xmlns="http://www.w3.org/2000/svg">
<path d="M55.4167 32.0833H20.8251L31.4126 19.3666C31.9077 18.771 32.1458 18.0031 32.0747 17.2319C32.0036 16.4606 31.629 15.7492 31.0334 15.2541C30.4378 14.7591 29.6699 14.5209 28.8986 14.592C28.1274 14.6631 27.416 15.0377 26.9209 15.6333L12.3376 33.1333C12.2395 33.2725 12.1517 33.4187 12.0751 33.5708C12.0751 33.7166 12.0751 33.8041 11.8709 33.95C11.7387 34.2844 11.6695 34.6404 11.6667 35C11.6695 35.3596 11.7387 35.7155 11.8709 36.05C11.8709 36.1958 11.8709 36.2833 12.0751 36.4291C12.1517 36.5812 12.2395 36.7274 12.3376 36.8666L26.9209 54.3666C27.1951 54.6959 27.5386 54.9606 27.9267 55.1421C28.3149 55.3236 28.7383 55.4173 29.1667 55.4166C29.8482 55.418 30.5087 55.1806 31.0334 54.7458C31.3288 54.5009 31.5729 54.2002 31.7518 53.8609C31.9308 53.5215 32.041 53.1502 32.0762 52.7682C32.1115 52.3862 32.071 52.001 31.9571 51.6346C31.8432 51.2683 31.6582 50.928 31.4126 50.6333L20.8251 37.9166H55.4167C56.1903 37.9166 56.9322 37.6093 57.4791 37.0624C58.0261 36.5154 58.3334 35.7735 58.3334 35C58.3334 34.2264 58.0261 33.4846 57.4791 32.9376C56.9322 32.3906 56.1903 32.0833 55.4167 32.0833Z" fill="#5E5D5D"/>
</svg>
